# xmcd
#
# Track frame offsets: 
#        150
#        13227
#        23495
#        44830
#        55994
#        67382
#        81634
#        93639
#        115341
#        131937
#        144730
#        170661
#        183406
#        196689
#        215370
#        229037
#        252830
#        275476
#        294698
#        305206
#
# Disc length: 4203 seconds
#
# Revision: 0
# Processed by: cddbd v1.5.2PL0 Copyright (c) Steve Scherf et al.
# Submitted via: ExactAudioCopy v0.99pb3
#
DISCID=45106914
DTITLE=Memphis Slim - The Bluesman
DYEAR=1969
DGENRE=Blues
TTITLE0=Only Fools Have Fun
TTITLE1=Little Lonely Girl
TTITLE2=Forty Years Or More
TTITLE3=Ballin' The Jack
TTITLE4=Let's Get With It
TTITLE5=Broadway Boogie
TTITLE6=A Long Time Baby
TTITLE7=Strollin' Thru The Park
TTITLE8=This Little Woman
TTITLE9=Sassy Mae
TTITLE10=Freedom
TTITLE11=I Am The Blues
TTITLE12=Ramble This Highway
TTITLE13=Gambler's Blues
TTITLE14=Everyday I Have The Blues
TTITLE15=Rock Me Baby
TTITLE16=Lend Me Your Love
TTITLE17=Gone Again
TTITLE18=All By Myself
TTITLE19=Caldonia
EXTD=
EXTT0=
EXTT1=
EXTT2=
EXTT3=
EXTT4=
EXTT5=
EXTT6=
EXTT7=
EXTT8=
EXTT9=
EXTT10=
EXTT11=
EXTT12=
EXTT13=
EXTT14=
EXTT15=
EXTT16=
EXTT17=
EXTT18=
EXTT19=
PLAYORDER=
